# xmcd
#
# Track frame offsets:
#	150
#	13905
#	23655
#	37104
#	49179
#	62695
#	70877
#	83252
#	96227
#	105902
#	119044
#	134944
#	145014
#	155219
#	165447
#	176138
#	189263
#	200963
#	211662
#	223272
#	234582
#	246212
#	256626
#
# Disc length: 3620 seconds
#
# Revision: 0
# Processed by: cddbd v1.5.2PL0 Copyright (c) Steve Scherf et al.
# Submitted via: dBpowerAMP V4.0
#
DISCID=500e2217
DTITLE=Los Hechiceros Guaraníes - Volumen 4
DYEAR=1900
DGENRE=
TTITLE0=Apyta jeytama che año
TTITLE1=Che sy porâme
TTITLE2=Che ko nendivente la avy'a
TTITLE3=Ñandepa peicha guarâ
TTITLE4=Oga kapi'i ahayhueteva
TTITLE5=Ndente voíma
TTITLE6=Madre Milagrosa
TTITLE7=Ku pyhareve asaje
TTITLE8=I porâ la che yvoty
TTITLE9=Nde porâre rohayhu
TTITLE10=Andreita
TTITLE11=No quiero
TTITLE12=A mi dulce Ilusión
TTITLE13=Rohayju jepe
TTITLE14=Yvoty mandu'aha
TTITLE15=Morocha hermosa
TTITLE16=Ro momoravo mama rojupa nde saludavo
TTITLE17=Mbaraka che irû
TTITLE18=Tupao altarpe aguerahase
TTITLE19=Jajoayhu jeyna
TTITLE20=Rehosentema ra'e
TTITLE21=Ema pe guarami
TTITLE22=Me gusta inspirar
EXTD=
EXTT0=
EXTT1=
EXTT2=
EXTT3=
EXTT4=
EXTT5=
EXTT6=
EXTT7=
EXTT8=
EXTT9=
EXTT10=
EXTT11=
EXTT12=
EXTT13=
EXTT14=
EXTT15=
EXTT16=
EXTT17=
EXTT18=
EXTT19=
EXTT20=
EXTT21=
EXTT22=
PLAYORDER=
